<svg xmlns="http://www.w3.org/2000/svg" viewBox="0 0 758 334" width="90"><path opacity=".5" d="M166 155H71v-24h47v-23h24V84h24V37h-24V13H24v24H0v23h48V37h70v23H95v24H48v24H24v23H0v47h166zm201-47h-24V84h24V37h-24V13H202v165h141v-23h24zM249 84V37h71v47zm0 71v-47h71v47zm319 0h-94v-24h47v-23h24V84h23V37h-23V13H427v24h-24v23h47V37h71v23h-23v24h-48v24h-23v23h-24v47h165v-23zM758 13H616v24h47v141h48V37h47V13zM628 290v-45h-15v-15h-89v104h29v-29h15v15h15v14h45v-14h-15v-15h-15v-15zm-45-15v15h-30v-45h45v30zm172-45h-30v90h-45v-90h-29v90h15v14h74v-14h15v-90zM434 305h30v29h-30zM105 245v-15H30v15H15v75h15v14h75v-14h14v-75zm-15 75H45v-75h45zm157-30v-45h-15v-15h-90v104h30v-29h15v15h15v14h45v-14h-15v-15h-15v-15zm-45-15v15h-30v-45h45v30zm172 0h-45v15h15v30h-30v-15h-15v-45h15v-15h60v-15h-75v15h-15v15h-15v45h15v14h15v15h75v-59z"></path><path fill="#fc22f0" d="M166 142H71v-24h47V95h24V71h24V24h-24V0H24v24H0v23h48V24h70v23H95v24H48v24H24v23H0v47h166zm201-47h-24V71h24V24h-24V0H202v165h141v-23h24zM249 71V24h71v47zm0 71V95h71v47z"></path><path fill="#fbf81c" d="M568 142h-94v-24h47V95h24V71h23V24h-23V0H427v24h-24v23h47V24h71v23h-23v24h-48v24h-23v23h-24v47h165v-23zM758 0H616v24h47v141h48V24h47V0z"></path><path fill="#fc221c" d="M628 277v-45h-15v-15h-89v104h29v-29h15v15h15v14h45v-14h-15v-15h-15v-15zm-45-15v15h-30v-45h45v30zm172-45h-30v90h-45v-90h-29v90h15v14h74v-14h15v-90z"></path><path fill="#fff" d="M434 292h30v29h-30z"></path><path fill="#26f8f3" d="M105 232v-15H30v15H15v75h15v14h75v-14h14v-75zm-15 75H45v-75h45zm157-30v-45h-15v-15h-90v104h30v-29h15v15h15v14h45v-14h-15v-15h-15v-15zm-45-15v15h-30v-45h45v30zm172 0h-45v15h15v30h-30v-15h-15v-45h15v-15h60v-15h-75v15h-15v15h-15v45h15v14h15v15h75v-59z"></path></svg>